<svg id="Layer_1" data-name="Layer 1" xmlns="http://www.w3.org/2000/svg" viewBox="0 0 186.45 51.31"><defs><style>.cls-1{isolation:isolate;}.cls-2{fill:#20434c;}.cls-3{fill:#fefefe;}.cls-4{fill:#dc5d49;}</style></defs><title>logo</title><g class="cls-1"><path class="cls-2" d="M14,14.63H43.66v8.9h-19V34.41H40.89v8.9H24.65V61.56H14Z" transform="translate(-14.04 -11.11)"/><path class="cls-2" d="M50.89,50.46V11.11H61.48V50.89c0,2.27,1.05,3,1.91,3a4.79,4.79,0,0,0,1.3-.14L66,61.54a13.7,13.7,0,0,1-5.31.88C53.37,62.42,50.89,57.69,50.89,50.46Z" transform="translate(-14.04 -11.11)"/><path class="cls-2" d="M69.41,43.71C69.41,32.12,77.68,25,86.26,25c10.17,0,15.21,7.4,15.21,17.15A23.47,23.47,0,0,1,101,46.8H79.66c1,5.18,4.5,7.56,9.27,7.56A14.86,14.86,0,0,0,96.65,52l3.5,6.38a23.27,23.27,0,0,1-12.67,4C77.29,62.42,69.41,55.54,69.41,43.71Zm23-3.91c0-3.93-1.71-6.76-5.94-6.76-3.34,0-6.23,2.24-6.95,6.76Z" transform="translate(-14.04 -11.11)"/><path class="cls-2" d="M115,43,104.63,25.84H116l3.18,5.77c1,2,2,4.1,3,6.09h.29c.76-2,1.68-4.1,2.44-6.09l2.44-5.77h11L128,44.18l11,17.38H127.62l-3.52-5.9c-1.11-2-2.2-4.2-3.34-6.22h-.29c-.91,2-1.85,4.12-2.75,6.22l-2.78,5.9H104Z" transform="translate(-14.04 -11.11)"/><path class="cls-3" d="M145.19,14.63H155.8V61.56H145.19Z" transform="translate(-14.04 -11.11)"/><path class="cls-3" d="M163.83,55.64l6.09-7.28c3.34,2.9,7.66,4.9,11.53,4.9,4.43,0,6.59-1.74,6.59-4.53,0-2.95-2.66-3.9-6.76-5.58l-6.1-2.6c-4.87-2-9.47-6-9.47-12.8,0-7.77,6.94-14,16.71-14a21.69,21.69,0,0,1,15.1,6.15l-5.36,6.68c-3.09-2.37-6-3.67-9.74-3.67s-6,1.52-6,4.2c0,2.88,3.07,3.93,7.17,5.56l6,2.42c5.73,2.32,9.31,6.14,9.31,12.77,0,7.79-6.5,14.54-17.68,14.54A25.83,25.83,0,0,1,163.83,55.64Z" transform="translate(-14.04 -11.11)"/><path class="cls-4" d="M146.79,14.63H157.4V61.56H146.79Z" transform="translate(-14.04 -11.11)"/><path class="cls-4" d="M165.43,55.64l6.09-7.28c3.34,2.9,7.67,4.9,11.53,4.9,4.43,0,6.59-1.74,6.59-4.53,0-2.95-2.66-3.9-6.76-5.58l-6.1-2.6c-4.87-2-9.47-6-9.47-12.8,0-7.77,6.94-14,16.71-14a21.69,21.69,0,0,1,15.1,6.15l-5.36,6.68c-3.09-2.37-6-3.67-9.74-3.67s-6,1.52-6,4.2c0,2.88,3.07,3.93,7.16,5.56l6,2.42c5.73,2.32,9.31,6.14,9.31,12.77,0,7.79-6.5,14.54-17.68,14.54A25.83,25.83,0,0,1,165.43,55.64Z" transform="translate(-14.04 -11.11)"/></g></svg>