<svg xmlns="http://www.w3.org/2000/svg" viewBox="0 0 994 607.55"><defs><style>.cls-1{fill:#f7f7f7;}.cls-2{fill:#aa6755;}.cls-3{fill:#4b505b;}.cls-4{fill:#bcbec0;}.cls-5{fill:#3b455a;}.cls-6{fill:#f7caa6;}.cls-7{fill:#f2f2f2;}.cls-8{fill:#eac1a4;}.cls-9{fill:#333743;}.cls-10{fill:#40495f;}.cls-11{fill:#f78b7f;}.cls-12{fill:#f7725e;}.cls-13{fill:#587bc9;}</style></defs><title>Asset 2</title><g id="Layer_2" data-name="Layer 2"><g id="Shadow"><path class="cls-1" d="M456,501.77c-29.11.08-58.22.76-87.27,3.89-11,1.18-21.69,3.78-32.67,4.82-21.93,2.1-43.47,6-65.48,7.8-17.73,1.45-35.53,2.3-53.21,4.14A193.28,193.28,0,0,1,166,520.9c-12.18-2.11-24.41-3.3-36.38-6.68-13.38-3.79-27.93-6.5-41.88-6.4-19.89.13-39.26.15-58.3,6.84C22.8,517,14.62,520.87,9.54,525.8-2.08,537.08-3.65,565.23,8,576.93c19.54,19.69,61.23,27.42,88.62,27.79,30,.4,59.16-1.76,89.21-3,27.92-1.18,55.78-2.86,83.75-2.8,57.13.12,114.26,0,171.29-3.69,53.57-3.48,107.28-2.28,161-2.28,55.06,0,109.75.42,164.41,7.5,23.82,3.09,48.08,4.17,72,6.34,21.44,1.93,42,0,63.39-1.83a155.32,155.32,0,0,0,52-13.51c12.89-6,35.88-24.5,39.83-38.75,11.09-39.93-156.22-39-181.9-38.88-28.74.1-57.7,1-86.42,0-12.08-.44-24-2.73-35.77-5.24s-23.57-1.86-35.48-2.91c-49.65-4.37-99.42-3.73-149.23-3.73C488.46,501.86,472.24,501.72,456,501.77Z"/></g><g id="Object"><path class="cls-2" d="M267,110.83l5.67-4.8,7.34,2.35,4.22,6.13-1.93,5.23-6,3.46,2.27.61-.42,1.84-9.36,4.27c-2.26-2.35-9.85-4.15-11.05-5.41l6.26-5.38Z"/><polygon class="cls-3" points="82.55 541.65 82.33 543.79 81.6 550.89 95.74 559.52 103.91 553.18 97.2 545.32 96.57 544.94 96.24 545.75 82.55 541.65"/><path class="cls-4" d="M141.44,388.71c-16,1.06-30.91,1.49-42.59,1.65l.41,54.81L81.78,541.42l.77.23,13.69,4.11.33-.82,45.94-113.48,1.6-23.14Z"/><path class="cls-4" d="M144.94,396.44l-.83,11.88,4.11,30.08L152.9,547H153l.06-1.57,14,.42,22.06-115.28,1.19-47.09c-15.15,2.41-31,4-46,5.06Z"/><polygon class="cls-3" points="167.98 545.87 167.01 545.84 153.04 545.42 152.98 546.99 152.77 552.55 167.44 560.14 175.18 553.23 167.98 545.87"/><path class="cls-2" d="M118.81,151.8c-.47-1.18-.94-2.36-1.4-3.54l.1-.08c6.2-4.7,9-12.88,8.69-20.61A41.2,41.2,0,0,0,122.55,113a32.45,32.45,0,0,0-5.65-7.19c-4-3.78-9.39-6.78-14.66-6.6-2.14.08-1.25,1.75-3.84.43a4.52,4.52,0,0,1-1.17-1l-.72.78c-2.49,2.59-5.24,3.83-8.22,5.71-4.53,2.85-7,8.9-5.89,14.61.45,2.36,1.45,4.79.88,7.06-.5,2-2.08,3.34-3.09,5a9.31,9.31,0,0,0-1.12,3.33c5,9,14.37,16.27,24.06,17.16,0,0,0,.07,0,.1.13.58.27,1.15.43,1.71.7,2.48,2.39,5.1,5,5.29a8,8,0,0,0,3.43-.81l6.65-2.69a1.84,1.84,0,0,0,1.13-.87,1.78,1.78,0,0,0-.17-1.25Z"/><path class="cls-5" d="M166.56,89c-5.24-.32-9.88,2.75-14.14,5.71-.76-5.15-5.72-8.71-10.49-10.1s-9.77-1.39-14.43-3.21c-5.59-2.19-11.12-7-16.68-5.45-5,1.42-8.12,7.5-11.24,12.9l-.24-.26c-2.4-2.49-5-4.87-8.09-6.15-10-4.12-8.84,8.33-16.5,7.67-1.85-.16-3.42-1.62-5.17-2.39-3.29-1.45-7-.3-9.92,1.49s-5.55,4.22-8.72,5.56c-2.82,1.19-6,1.49-8.64,3.07-3.95,2.36-3.14,6.65-3.84,10.56-.78,4.32-2,10.15-4.3,13.74-1.69,2.58-4.3,4.27-6.48,6.38s-4.07,5.06-3.6,8.29c.44,3.06,2.87,5.55,3.56,8.57,1,4.52.47,7,2.48,11.45,1,2.31,2.19,4.76,4.22,6.17,2.67,1.85,6.08,1.36,9,.48s5.92-2.12,9-1.52c6.69,1.31,6.32,7.92,8.72,13.1a15.83,15.83,0,0,0,7.74,7.6,14.49,14.49,0,0,0,13.07,0c5.9-3.29,8.57-10.94,7.38-18a54.09,54.09,0,0,0-2.3-7.36,18,18,0,0,1-.7-2.83c-.54-3.41.79-8.41-2.68-10.72a25.16,25.16,0,0,1-2.65-1.46,5,5,0,0,1-1.34-2.1,10.34,10.34,0,0,1-.52-5,9.31,9.31,0,0,1,1.12-3.33c1-1.71,2.59-3.08,3.09-5,.57-2.27-.43-4.7-.88-7.06C81.32,114,83.76,108,88.29,105.12c3-1.88,5.73-3.12,8.22-5.71l.72-.78a4.52,4.52,0,0,0,1.17,1c2.59,1.32,1.7-.35,3.84-.43,5.27-.18,10.67,2.82,14.66,6.6a32.45,32.45,0,0,1,5.65,7.19,33.4,33.4,0,0,1,4.56,15.6c.24,7.75-3.78,11.17-.08,19a27.16,27.16,0,0,0,3,4.9,25.32,25.32,0,0,0,12.23,8.92c.54,0,1.08,0,1.62-.07a20.51,20.51,0,0,0,7.67-2.19,22.63,22.63,0,0,0,6.4-4.84,22.94,22.94,0,0,0,5.63-10.92c.47-2.27.69-4.79,2.18-6.43,1.21-1.32,3-1.84,4.27-3.13,5.12-5.38-4.65-15.14-2.45-22.53,1.39-4.68,7.14-6.5,8.39-11.23C177.34,94.78,171.81,89.32,166.56,89Z"/><path class="cls-6" d="M276.65,127c-1.72-.31-19.54-5.37-19.54-5.37,1,.17-43,32.48-47.15,35-12.8,7.72-37-1.71-52-2.35a22.63,22.63,0,0,1-6.4,4.84,20.51,20.51,0,0,1-7.67,2.19c-.54,0-1.08.07-1.62.07A25.32,25.32,0,0,1,130,152.47c-1.83-.43-3.3-.74-4.29-.95l-6.91.28.79,2a1.78,1.78,0,0,1,.17,1.25,1.84,1.84,0,0,1-1.13.87L112,158.62a8,8,0,0,1-3.43.81c-2.59-.19-4.28-2.81-5-5.29-.16-.56-.3-1.13-.43-1.71L90,153,87,157.26a54.09,54.09,0,0,1,2.3,7.36c1.19,7.06-1.48,14.71-7.38,18a14.49,14.49,0,0,1-13.07,0L66.08,336.73,79,394.9s9.26.25,23.59.06c11-.15,25.12-.56,40.28-1.55l2.63-.18c14.19-1,29.21-2.5,43.55-4.79,5.52-.88,10.95-1.88,16.17-3,0,0,13.45-36.55-5.87-128.27-3-14.41-7.24-30.6-11.31-44.94,12.88-11,47.4-30.16,58.68-42.85C259,155.48,276.76,127,277.15,127.1Z"/><polygon class="cls-7" points="860.73 129.28 830.14 134.67 775.92 176.67 703.52 157.77 695.13 175.17 762.44 207.56 791.77 214.96 829.88 202.52 860.73 129.28"/><polygon class="cls-8" points="701.55 169.16 690.22 174.82 682.13 173.91 682.08 171.15 686.83 169.25 671.47 165.92 670.05 158.51 688.46 154.14 705.14 158.99 701.55 169.16"/><path class="cls-9" d="M826.84,528.42l-14.28,10.11-4.76,7.74a54.87,54.87,0,0,0,8.33,3c3,.6,26.18-3,26.18-3V532.58Z"/><path class="cls-9" d="M937.79,532.73l-5.27,9.58s-3.29,12.11-.44,11.28,18.79-3.6,19.43-5.64,7.56-10.25,8.37-11.73-2.63-11.34-2.63-11.34Z"/><path class="cls-10" d="M840.13,307.14l46.11,137.64,51.55,88,20-5.81L923.61,426.61s-4.13-100.76-10.88-130.4Z"/><polygon class="cls-10" points="803.63 327.91 821.48 532.58 842.9 532.58 849.45 427.87 861.74 335.15 814.94 280.31 803.63 327.91"/><path class="cls-7" d="M803,196.94c2.21-10.55,3.09-21.9,8.31-31.74s15.1-17.28,22.71-25.65c3.23-3.54,6.68-7.23,11.48-8.92,3.28-1.15,6.91-1.26,10.45-1.35l32.24-.81c3.91-.1,8-.17,11.56,1.24,5.35,2.13,8.37,7,11,11.65,6.75,11.75,8,24.77,8.6,38,0,.13,8.38,166.72,1.72,163.59-8.3-3.9-17.79-6-27.11-7.41A298.67,298.67,0,0,0,854,331.8l-23.55,1.59H816.25c-8.53.83-7.83,3.4-16.6,2.86C794,335.91,800.41,209,803,196.94Z"/><path class="cls-8" d="M864.67,134.67l16-.69a78.79,78.79,0,0,0-.16-12.76c4.51-1.31,9.75-3.36,10.77-7.93a13.12,13.12,0,0,0,0-4.42q-1.07-9.11-2.12-18.2a16.11,16.11,0,0,0-1.54-6.11c-1.81-3.24-5.58-4.82-9.2-5.65-9.22-2.13-19.47-.68-27,5a14.43,14.43,0,0,0-4.83,5.69c-1.51,3.58-.76,7.66,0,11.46q1.08,5.27,2.15,10.54c.82,4,2.08,8.65,5.84,10.35,2,.91,4.41.81,6.18,2.08C863.87,126.3,863.17,131.11,864.67,134.67Z"/><path class="cls-5" d="M835.12,57.54a15.34,15.34,0,0,0,3.62-1c3.86-1.68,6.57-5,10.67-6.63,8.3-3.19,18.7-2.73,26.85.7,7.8,3.28,18.44,4.54,25.42,9a21.24,21.24,0,0,1,6.88,7.58A32.06,32.06,0,0,1,906.77,101a45.21,45.21,0,0,1-5.33,6c-4,3.86-8.74,8.64-14,9.86.13-4.62,5.15-19,1.81-22.94-4.43-5.28-13.11-5.15-19.34-4.56-7.42.69-13.52-1.69-20.92-1.32-3.77.19-8,1-10.92-1.48C834.74,83.77,827.68,74.86,826,71a9.88,9.88,0,0,1,2.06-10.36C830.27,58.25,832.64,58,835.12,57.54Z"/><path class="cls-5" d="M851.23,243.4,837.7,260.14l-6.83-20a12.61,12.61,0,0,1,1-4.81c2.82-6.83,32.53-92.42,32.53-92.42a82.38,82.38,0,0,0,1.76-8.33l9.52-.6-1.57,9.73-4.46,3.83Z"/><path class="cls-11" d="M533.44,58.7c-7.53-12.8-21.22-11.22-32.3-4.32a8,8,0,0,1-11.54-3.51V.05h-.68l-.06,0a277.09,277.09,0,0,0-227.8,131.82l37,21.34a32.46,32.46,0,0,1,8.13-16.92c5.07-5.29,12-8.13,20-8.19a31.38,31.38,0,0,1,31.19,31.7c-.27,10.18-5.59,16.69-11.26,21.17l35.55,20.52a138,138,0,0,1,107.2-62.2l.08.05h.68V89.17a8,8,0,0,1,11.28-3.68c7.79,4.44,15.45,8.32,24.16,3.59C535.63,83.32,539.55,69.08,533.44,58.7Z"/><path class="cls-6" d="M326.14,136.57c-14.84.12-20.32,12.77-19.88,25.81a8,8,0,0,1-8.81,8.24l-44-25.41-.35.59v.06a277,277,0,0,0,.27,263.19l37-21.34a32.49,32.49,0,0,1-10.6-15.5c-2-7-1-14.44,2.91-21.42a31.38,31.38,0,0,1,43.05-11.16c8.68,5.32,11.66,13.19,12.7,20.33l35.56-20.53a138,138,0,0,1-.27-123.93l.08,0,.34-.6-43.46-25.09a8,8,0,0,1,2.45-11.61c7.74-4.52,14.93-9.22,15.18-19.13C348.56,147,338.19,136.47,326.14,136.57Z"/><path class="cls-12" d="M289.94,355c-7.32,12.92.89,24,12.41,30.12a8,8,0,0,1,2.72,11.75l-44,25.41.34.6.05,0A277.06,277.06,0,0,0,489.51,554.31V511.63a32.42,32.42,0,0,1-18.72,1.43c-7.12-1.75-13-6.32-17.09-13.23A31.35,31.35,0,0,1,465.56,457c8.94-4.86,17.25-3.51,23.95-.84V415.08a138,138,0,0,1-107.46-61.73v-.1l-.34-.59-43.47,25.09a8,8,0,0,1-8.82-7.92c-.05-9-.53-17.55-9-22.72C310.17,340.82,295.87,344.55,289.94,355Z"/><path class="cls-11" d="M461,495.61c7.53,12.8,21.22,11.22,32.3,4.32a8,8,0,0,1,11.53,3.51v50.82h.69l.06,0A277.07,277.07,0,0,0,733.4,422.42l-37-21.34A32.37,32.37,0,0,1,688.31,418c-5.07,5.3-12,8.13-20,8.2a31.38,31.38,0,0,1-31.19-31.71c.27-10.17,5.59-16.69,11.26-21.16L612.82,352.8A138,138,0,0,1,505.62,415l-.08-.05h-.69v50.19a8,8,0,0,1-11.27,3.68c-7.79-4.44-15.45-8.32-24.16-3.58C458.83,471,454.91,485.24,461,495.61Z"/><path class="cls-6" d="M668.31,417.74c14.85-.12,20.33-12.77,19.89-25.81A8,8,0,0,1,697,383.7l44,25.41.35-.6v-.06a277.07,277.07,0,0,0-.27-263.19l-37,21.34a32.49,32.49,0,0,1,10.6,15.5c2,7,1,14.45-2.91,21.42a31.37,31.37,0,0,1-43.06,11.16c-8.67-5.31-11.65-13.19-12.7-20.33l-35.55,20.53a138,138,0,0,1,.27,123.93l-.08.05-.34.59,43.46,25.1a8,8,0,0,1-2.45,11.6c-7.74,4.52-14.93,9.23-15.18,19.13C645.9,407.33,656.27,417.84,668.31,417.74Z"/><path class="cls-12" d="M704.52,199.29c7.32-12.93-.89-24-12.41-30.13a8,8,0,0,1-2.72-11.75l44-25.41-.34-.6,0,0A277.07,277.07,0,0,0,505,0V42.68a32.51,32.51,0,0,1,18.72-1.43c7.12,1.75,13,6.32,17.09,13.23A31.38,31.38,0,0,1,528.9,97.35c-8.94,4.86-17.25,3.5-23.95.83v41A138,138,0,0,1,612.41,201v.1l.34.59,43.47-25.09a8,8,0,0,1,8.82,7.92c.05,9,.53,17.55,9,22.72C684.29,213.49,698.59,209.76,704.52,199.29Z"/><polygon class="cls-7" points="871.24 168.17 873.04 227.58 788.24 245.94 792.04 265.2 885.85 259.36 903.22 243.16 914.87 186.1 871.24 168.17"/><polygon class="cls-8" points="791.7 263.46 779.14 270.67 765.39 264 779.05 242.23 788.24 245.94 791.7 263.46"/><polygon class="cls-2" points="211.46 254.23 211.2 262.31 225.47 267.51 233.7 261.28 233.7 251.86 225.76 251.42 225.51 249.35 222.91 247.68 211.46 254.23"/><path class="cls-13" d="M169.68,236.36l44,8.71s-2.53,26.85-2.51,24.62-57.82-4.85-57.82-4.85Z"/></g></g></svg>