<svg xmlns="http://www.w3.org/2000/svg" viewBox="0 0 690.21 452.96"><defs><style>.cls-1{fill:#f5f5f5;}.cls-2{fill:#e0e0e0;}.cls-11,.cls-13,.cls-3,.cls-5{fill:#263238;}.cls-21,.cls-4{fill:#fff;}.cls-5{font-size:10.35px;}.cls-11,.cls-13,.cls-5{font-family:Montserrat-ExtraBold, Montserrat;font-weight:800;}.cls-6{letter-spacing:-0.03em;}.cls-7{letter-spacing:-0.02em;}.cls-8{fill:#ff725e;}.cls-10,.cls-22,.cls-9{fill:none;}.cls-9{stroke:#fff;}.cls-22,.cls-9{stroke-linecap:round;stroke-linejoin:round;}.cls-10{stroke:#ff725e;stroke-miterlimit:10;}.cls-11{font-size:11.04px;}.cls-12{letter-spacing:-0.01em;}.cls-13{font-size:8.73px;}.cls-14{letter-spacing:-0.03em;}.cls-15{letter-spacing:-0.01em;}.cls-16{letter-spacing:-0.02em;}.cls-17{fill:#455a64;}.cls-18{letter-spacing:-0.06em;}.cls-19{letter-spacing:-0.05em;}.cls-20{letter-spacing:-0.01em;}.cls-21{fill-rule:evenodd;}.cls-22{stroke:#455a64;}.cls-23{opacity:0.3;}.cls-24{fill:#ffbf9d;}.cls-25{fill:#ff9a6c;}</style></defs><title>second</title><g id="Background_Complete" data-name="Background Complete"><rect class="cls-1" x="79.39" y="132.88" width="60.62" height="89.94" transform="translate(-98.95 253.87) rotate(-89.53)"/><path class="cls-2" d="M155.19,148.64a5.76,5.76,0,0,1-.84.8c-.64.55-1.48,1.27-2.52,2.18-2.29,1.91-5.47,4.59-9.38,7.88l-31.22,25.84-.25.21-.26-.21-.63-.51-31.81-26-9.58-7.94-2.58-2.2a6.13,6.13,0,0,1-.86-.8,5.47,5.47,0,0,1,1,.68l2.67,2.07,9.74,7.74,32,25.8.63.51h-.52l31.37-25.65,9.55-7.69,2.61-2.05A6.29,6.29,0,0,1,155.19,148.64Z" transform="translate(-29.9 -32.22)"/><path class="cls-2" d="M64.76,208.53c-.17-.15,6.66-8.41,15.26-18.44s15.7-18.05,15.87-17.9-6.65,8.4-15.25,18.43S64.93,208.67,64.76,208.53Z" transform="translate(-29.9 -32.22)"/><path class="cls-2" d="M125.8,171.67c.17-.13,6.79,8.17,14.77,18.55s14.3,18.9,14.13,19-6.8-8.16-14.78-18.54S125.62,171.81,125.8,171.67Z" transform="translate(-29.9 -32.22)"/><rect class="cls-1" x="626.81" y="87.84" width="36.93" height="54.79" transform="translate(494.87 727.33) rotate(-89.53)"/><path class="cls-2" d="M673,97.44a4.1,4.1,0,0,1-.52.48L671,99.25l-5.72,4.8-19,15.74-.15.13-.16-.13-.38-.31-19.38-15.82-5.84-4.84-1.57-1.34a3.62,3.62,0,0,1-.52-.49,3.7,3.7,0,0,1,.59.41l1.62,1.27,5.94,4.71,19.47,15.72.38.31h-.31L665,103.78l5.81-4.68,1.6-1.25A3,3,0,0,1,673,97.44Z" transform="translate(-29.9 -32.22)"/><path class="cls-2" d="M617.9,133.92c-.1-.09,4.06-5.12,9.3-11.23s9.57-11,9.67-10.91-4.06,5.12-9.3,11.23S618,134,617.9,133.92Z" transform="translate(-29.9 -32.22)"/><path class="cls-2" d="M655.09,111.47c.11-.09,4.14,5,9,11.3s8.71,11.51,8.6,11.6-4.13-5-9-11.3S655,111.55,655.09,111.47Z" transform="translate(-29.9 -32.22)"/><path class="cls-1" d="M560.29,404.93v45.14h-7.54V455h7.54v30.21H701.17V457.69H690.74v-6h10.43v-9h4.64v-4.08H700.3V404.93Z" transform="translate(-29.9 -32.22)"/><polygon class="cls-2" points="633.86 372.84 633.86 452.46 671.27 452.46 671.27 424.97 660.84 424.97 660.84 419.49 671.27 419.67 671.27 410.69 676 410.69 675.91 406.05 670.4 405.92 670.4 372.71 633.86 372.84"/><path class="cls-2" d="M666.42,454.32c0,.28-25.49.5-56.93.5s-56.94-.22-56.94-.5,25.49-.5,56.94-.5S666.42,454,666.42,454.32Z" transform="translate(-29.9 -32.22)"/><path class="cls-2" d="M666.42,449.73c0,.28-25.49.5-56.93.5s-56.94-.22-56.94-.5,25.49-.5,56.94-.5S666.42,449.46,666.42,449.73Z" transform="translate(-29.9 -32.22)"/><path class="cls-2" d="M673.74,437.39c0,.28-25.5.5-56.94.5s-56.94-.22-56.94-.5,25.49-.5,56.94-.5S673.74,437.12,673.74,437.39Z" transform="translate(-29.9 -32.22)"/><path class="cls-2" d="M674.44,471c0,.28-25.49.5-56.93.5s-56.94-.22-56.94-.5,25.49-.5,56.94-.5S674.44,470.75,674.44,471Z" transform="translate(-29.9 -32.22)"/></g><g id="Desk"><path class="cls-3" d="M720.1,481.41c0,.15-154.52.26-345.08.26s-345.12-.11-345.12-.26,154.48-.26,345.12-.26S720.1,481.27,720.1,481.41Z" transform="translate(-29.9 -32.22)"/></g><g id="Screen"><path class="cls-4" d="M464.9,134.7H667.14a11.94,11.94,0,0,1,11.94,11.94V293.22A18.78,18.78,0,0,1,660.3,312H469.09a18.78,18.78,0,0,1-18.78-18.78V149.29A14.59,14.59,0,0,1,464.9,134.7Z"/><path class="cls-2" d="M464.9,134.7H667.14a11.94,11.94,0,0,1,11.94,11.94v12.9a0,0,0,0,1,0,0H450.31a0,0,0,0,1,0,0V149.29A14.59,14.59,0,0,1,464.9,134.7Z"/><path class="cls-4" d="M496.44,179.75a3.23,3.23,0,1,1-3.22-3.22A3.23,3.23,0,0,1,496.44,179.75Z" transform="translate(-29.9 -32.22)"/><path class="cls-4" d="M507.13,179.75a3.23,3.23,0,1,1-3.23-3.22A3.23,3.23,0,0,1,507.13,179.75Z" transform="translate(-29.9 -32.22)"/><path class="cls-4" d="M517.81,179.75a3.23,3.23,0,1,1-3.22-3.22A3.23,3.23,0,0,1,517.81,179.75Z" transform="translate(-29.9 -32.22)"/><text class="cls-5" transform="translate(526.6 183.26)"><tspan class="cls-6">T</tspan><tspan x="6.3" y="0">as</tspan><tspan class="cls-7" x="18.47" y="0">k</tspan><tspan x="25.37" y="0">s</tspan></text><path class="cls-2" d="M545.27,344.23c-.14,0-.26-33.88-.26-75.66s.12-75.66.26-75.66.26,33.87.26,75.66S545.41,344.23,545.27,344.23Z" transform="translate(-29.9 -32.22)"/><rect class="cls-2" x="463.32" y="183.26" width="40.92" height="5.28"/><rect class="cls-2" x="526.15" y="197.67" width="108.61" height="5.28"/><rect class="cls-2" x="463.32" y="198.74" width="16.28" height="5.28"/><rect class="cls-2" x="463.32" y="213.67" width="16.28" height="5.28"/><rect class="cls-8" x="650" y="195.55" width="9.52" height="9.52" rx="1.28"/><polyline class="cls-9" points="651.88 200.26 654.11 202.27 658.13 198.34"/><rect class="cls-2" x="526.15" y="218.07" width="108.61" height="5.28"/><rect class="cls-10" x="650" y="215.95" width="9.52" height="9.52" rx="1.28"/><rect class="cls-2" x="526.15" y="238.47" width="108.61" height="5.28"/><rect class="cls-10" x="650" y="236.35" width="9.52" height="9.52" rx="1.28"/><rect class="cls-2" x="526.15" y="258.88" width="108.61" height="5.28"/><rect class="cls-10" x="650" y="256.76" width="9.52" height="9.52" rx="1.28"/><rect class="cls-2" x="526.15" y="279.28" width="108.61" height="5.28"/><rect class="cls-10" x="650" y="277.16" width="9.52" height="9.52" rx="1.28"/><path class="cls-3" d="M690.19,344.22l.51,0c.34,0,.85,0,1.51-.1a19.61,19.61,0,0,0,5.69-1.59,18.62,18.62,0,0,0,7.37-6A18.93,18.93,0,0,0,708,331c.13-.53.27-1.06.41-1.61s.18-1.13.28-1.7a32.54,32.54,0,0,0,.14-3.6c0-19.86,0-48.58-.08-84.07,0-17.75,0-37.19,0-58.06,0-1.3,0-2.63,0-3.92a11.62,11.62,0,0,0-9.84-10.75,27.06,27.06,0,0,0-4-.16H652.26l-152.69,0c-3.37.07-6.82-.35-9.91,1a14.36,14.36,0,0,0-7.34,6.33,14.55,14.55,0,0,0-1.64,4.6,28.91,28.91,0,0,0-.22,4.94v48.88c0,25.54,0,50.18,0,73.65v17.38c0,.71,0,1.43,0,2.13a13.44,13.44,0,0,0,.19,2.1l.15,1,.27,1a14,14,0,0,0,.64,2,18.12,18.12,0,0,0,4.62,6.8,18.87,18.87,0,0,0,7,4.12c.64.19,1.3.35,1.95.51s1.33.23,2,.29c1.33.09,2.69.1,4,.09h15.91l58.07,0,84.07.09,22.85.05,5.95,0,2,0-2,0-5.95,0-22.85.05-84.07.08-58.07,0H501.32c-1.35,0-2.7,0-4.08-.08-.69-.07-1.36-.2-2.05-.3s-1.34-.32-2-.52a19.16,19.16,0,0,1-7.16-4.22,18.41,18.41,0,0,1-4.74-7,14.7,14.7,0,0,1-.66-2l-.27-1-.17-1.07a15.2,15.2,0,0,1-.19-2.14c-.05-.73,0-1.43,0-2.15q0-8.58,0-17.38c0-23.47,0-48.11,0-73.65q0-19.15,0-38.95V184a28.27,28.27,0,0,1,.23-5,15.09,15.09,0,0,1,1.7-4.78,14.83,14.83,0,0,1,7.6-6.55,14.2,14.2,0,0,1,5-1c1.7,0,3.39,0,5.08,0l152.69,0h42.56a27.1,27.1,0,0,1,4.12.17,12.14,12.14,0,0,1,3.9,1.31,12.48,12.48,0,0,1,5.39,5.94,12.67,12.67,0,0,1,.92,3.91c.08,1.35,0,2.64,0,3.95,0,20.87,0,40.31,0,58.06,0,35.49-.07,64.21-.09,84.07a30.58,30.58,0,0,1-.15,3.62c-.1.58-.16,1.16-.29,1.72l-.42,1.63a19.18,19.18,0,0,1-2.81,5.49,18.83,18.83,0,0,1-7.46,6,19.09,19.09,0,0,1-5.72,1.54C690.88,344.21,690.19,344.22,690.19,344.22Z" transform="translate(-29.9 -32.22)"/></g><g id="Device"><path class="cls-3" d="M435.35,365.76l-107.83-.07c-13,0-23.48-11.06-23.48-24.69l0-284.1c0-13.64,10.53-24.69,23.51-24.68l107.83.06c13,0,23.48,11.06,23.48,24.69l-.06,284.11C458.85,354.72,448.33,365.77,435.35,365.76Z" transform="translate(-29.9 -32.22)"/><path class="cls-4" d="M435.32,42.33H414.41a5.34,5.34,0,0,0-5.08,5.57v4a5.33,5.33,0,0,1-5.08,5.57l-40.75,0a5.35,5.35,0,0,1-5.08-5.58v-4a5.35,5.35,0,0,0-5.08-5.58H327.7c-9.09,0-16.46,7.73-16.46,17.28l-.06,277.31c0,9.55,7.36,17.29,16.45,17.29l107.62.07c9.08,0,16.45-7.74,16.46-17.29l.05-277.31C451.76,50.08,444.4,42.34,435.32,42.33Z" transform="translate(-29.9 -32.22)"/><path class="cls-2" d="M340.59,328v6.79a.75.75,0,0,1-1.15.64l-5.34-3.4a.75.75,0,0,1,0-1.26l5.34-3.4A.75.75,0,0,1,340.59,328Z" transform="translate(-29.9 -32.22)"/><path class="cls-2" d="M384.45,331.38a4.68,4.68,0,1,1-4.68-4.69A4.69,4.69,0,0,1,384.45,331.38Z" transform="translate(-29.9 -32.22)"/><rect class="cls-2" x="388.15" y="295.08" width="8.63" height="8.65" rx="1.87"/><path class="cls-3" d="M333.13,80c-1.12,0-2.55,0-4,0-1.7,0-3.4-.06-4.58-.05h0a.54.54,0,0,1,0-1.07c1.19,0,2.9,0,4.61,0s3.4.06,4.58,0h0a.53.53,0,1,1,0,1.06Z" transform="translate(-29.9 -32.22)"/><path class="cls-3" d="M327.83,83.54a.52.52,0,0,1-.4-.18l-3.26-3.66a.54.54,0,0,1,0-.73l3.17-3.33a.53.53,0,0,1,.75,0,.53.53,0,0,1,0,.76l-2.83,3,2.93,3.29a.55.55,0,0,1-.05.76A.53.53,0,0,1,327.83,83.54Z" transform="translate(-29.9 -32.22)"/><circle class="cls-3" cx="409.13" cy="42.06" r="1.66"/><path class="cls-3" d="M440.69,79.51A1.66,1.66,0,1,1,439,77.85,1.66,1.66,0,0,1,440.69,79.51Z" transform="translate(-29.9 -32.22)"/><path class="cls-3" d="M440.69,84.74A1.66,1.66,0,1,1,439,83.08,1.66,1.66,0,0,1,440.69,84.74Z" transform="translate(-29.9 -32.22)"/><text class="cls-11" transform="translate(319.59 51.33)"><tspan class="cls-12">F</tspan><tspan x="6.96" y="0">ocus Mode</tspan></text><path class="cls-2" d="M451.72,105.55c0,.15-31.36.26-70,.26s-70-.11-70-.26,31.35-.26,70-.26S451.72,105.41,451.72,105.55Z" transform="translate(-29.9 -32.22)"/><rect class="cls-1" x="291.76" y="90.78" width="119.64" height="30.06" rx="13.12"/><text class="cls-13" transform="translate(325.18 108.87) scale(1.01 1)"><tspan class="cls-14">T</tspan><tspan x="5.27" y="0">wi</tspan><tspan class="cls-15" x="16.35" y="0">t</tspan><tspan class="cls-16" x="20.15" y="0">t</tspan><tspan x="23.91" y="0">er</tspan></text><circle class="cls-17" cx="340.05" cy="138.02" r="8.46" transform="translate(-56.82 109.21) rotate(-22.62)"/><rect class="cls-8" x="386" y="101.74" width="10.6" height="10.6" rx="1.28"/><polyline class="cls-9" points="388.1 106.99 390.57 109.22 395.05 104.85"/><rect class="cls-1" x="291.76" y="126.91" width="119.64" height="30.06" rx="13.12"/><text class="cls-13" transform="translate(325.18 146) scale(1.01 1)">Doc</text><rect class="cls-10" x="386" y="137.87" width="10.6" height="10.6" rx="1.28"/><rect class="cls-1" x="291.76" y="163.04" width="119.64" height="30.06" rx="13.12"/><text class="cls-13" transform="translate(325.18 182.14) scale(1.01 1)">Gmail</text><rect class="cls-8" x="386" y="174" width="10.6" height="10.6" rx="1.28"/><polyline class="cls-9" points="388.1 179.25 390.57 181.49 395.05 177.11"/><rect class="cls-1" x="291.76" y="199.17" width="119.64" height="30.06" rx="13.12"/><text class="cls-13" transform="translate(325.18 217.27) scale(1.01 1)">Whatsapp</text><circle class="cls-17" cx="340.05" cy="246.42" r="9.08" transform="translate(-103.11 139.58) rotate(-25.69)"/><circle class="cls-17" cx="340.05" cy="212.04" r="9.08" transform="translate(-88.2 136.18) rotate(-25.69)"/><circle class="cls-17" cx="339.7" cy="174.15" r="9.08" transform="translate(-53.54 259) rotate(-45)"/><rect class="cls-8" x="386" y="210.13" width="10.6" height="10.6" rx="1.28"/><polyline class="cls-9" points="388.1 215.38 390.57 217.62 395.05 213.25"/><rect class="cls-1" x="291.76" y="235.31" width="119.64" height="30.06" rx="13.12"/><text class="cls-13" transform="translate(325.18 253.4) scale(1.01 1)"><tspan class="cls-18">Y</tspan><tspan x="5.52" y="0">o</tspan><tspan class="cls-19" x="11.34" y="0">u</tspan><tspan class="cls-20" x="16.92" y="0">T</tspan><tspan x="22.37" y="0">ube</tspan></text><rect class="cls-8" x="386" y="246.27" width="10.6" height="10.6" rx="1.28"/><polyline class="cls-9" points="388.1 251.52 390.57 253.75 395.05 249.38"/><path class="cls-4" d="M336,140.58a4.75,4.75,0,0,0,7.32-4.22,3.65,3.65,0,0,0,.84-.87,3.41,3.41,0,0,1-1,.26,1.67,1.67,0,0,0,.73-.92,3.23,3.23,0,0,1-1.06.4,1.7,1.7,0,0,0-1.22-.53,1.68,1.68,0,0,0-1.63,2.06,4.78,4.78,0,0,1-3.46-1.75,1.69,1.69,0,0,0,.52,2.24,1.8,1.8,0,0,1-.76-.21,1.69,1.69,0,0,0,1.35,1.66,1.76,1.76,0,0,1-.76,0,1.67,1.67,0,0,0,1.56,1.16A3.33,3.33,0,0,1,336,140.58Z" transform="translate(-29.9 -32.22)"/><path class="cls-21" d="M345,246.17a4.87,4.87,0,0,0-9.74-.09,1.48,1.48,0,0,0,0,.21,4.82,4.82,0,0,0,.7,2.5l-.88,2.59,2.7-.85a4.92,4.92,0,0,0,2.36.6,4.86,4.86,0,0,0,4.87-4.84Zm-4.87,4.19a4.07,4.07,0,0,1-2.26-.68l-1.57.51.51-1.52a4,4,0,0,1-.78-2.38c0-.13,0-.26,0-.39a4.1,4.1,0,0,1,8.16.07c0,.11,0,.21,0,.32A4.09,4.09,0,0,1,340.14,250.36Z" transform="translate(-29.9 -32.22)"/><path class="cls-21" d="M342.37,247.27c-.12-.06-.71-.35-.82-.39s-.19-.06-.27.06-.31.39-.37.46-.14.09-.26,0a3.08,3.08,0,0,1-1-.59A3.63,3.63,0,0,1,339,246a.18.18,0,0,1,.05-.25c.06-.05.12-.14.18-.2l.05-.06s0-.09.07-.14a.22.22,0,0,0,0-.21c0-.06-.27-.64-.37-.88s-.19-.2-.27-.2h-.22a.44.44,0,0,0-.32.15,1.37,1.37,0,0,0-.36,1.39,2.61,2.61,0,0,0,.43.83,4.94,4.94,0,0,0,2,1.79c1.21.47,1.21.31,1.43.29a1.2,1.2,0,0,0,.81-.56,1,1,0,0,0,.07-.57A.82.82,0,0,0,342.37,247.27Z" transform="translate(-29.9 -32.22)"/><path class="cls-4" d="M335.49,172.82h8.43a.63.63,0,0,0,0-1.25h-8.43a.63.63,0,0,0,0,1.25Z" transform="translate(-29.9 -32.22)"/><path class="cls-4" d="M335.49,175.26h8.43a.63.63,0,0,0,0-1.25h-8.43a.63.63,0,0,0,0,1.25Z" transform="translate(-29.9 -32.22)"/><path class="cls-4" d="M335.49,177.7h4.92a.63.63,0,0,0,0-1.25h-4.92a.63.63,0,0,0,0,1.25Z" transform="translate(-29.9 -32.22)"/><circle class="cls-17" cx="310.15" cy="250.65" r="9.08"/><path class="cls-4" d="M338.34,285.21v-5.32a.34.34,0,0,1,.51-.29l4.75,2.68a.34.34,0,0,1,0,.59l-4.75,2.63A.34.34,0,0,1,338.34,285.21Z" transform="translate(-29.9 -32.22)"/><rect class="cls-4" x="304.4" y="175.76" width="11.34" height="8.29" rx="1.14"/><polyline class="cls-22" points="305.63 182.98 305.63 176.91 310.25 179.52 314.52 176.91 314.52 182.98"/></g><g id="Focus_Icon" data-name="Focus Icon"><circle class="cls-1" cx="244.02" cy="76.02" r="32.65" transform="matrix(0.92, -0.39, 0.39, 0.92, -40.21, 69.08)"/><circle class="cls-2" cx="244.02" cy="76.02" r="26.55" transform="translate(-40.54 65.57) rotate(-22.19)"/><circle class="cls-3" cx="244.02" cy="76.02" r="18.99" transform="translate(-40.3 68.18) rotate(-22.78)"/><circle class="cls-2" cx="244.02" cy="76.02" r="7.28" transform="translate(100.08 272.53) rotate(-80.8)"/></g><g id="Notifications_Icon" data-name="Notifications Icon"><circle class="cls-1" cx="518.96" cy="95.37" r="47.74" transform="translate(257.78 537.41) rotate(-74.42)"/><path class="cls-17" d="M545,119.24l-7-8.1V91.74A19,19,0,0,0,521.86,73V64.85h-5.11v8A19,19,0,0,0,500,91.75v18.46l-7.09,9h19.35a8,8,0,0,0,12.89,3.08,8,8,0,0,0,2.06-3.09Z" transform="translate(-29.9 -32.22)"/><path class="cls-8" d="M554.6,82.52a12.11,12.11,0,1,1-12.11-12.11A12.11,12.11,0,0,1,554.6,82.52Z" transform="translate(-29.9 -32.22)"/><rect class="cls-4" x="541.57" y="76.69" width="2.43" height="10.87" transform="translate(187.17 -391.98) rotate(45)"/><rect class="cls-4" x="541.57" y="76.69" width="2.43" height="10.87" transform="translate(71.02 375.66) rotate(-45)"/></g><g id="Plant"><path class="cls-3" d="M100.72,435.6s-6.83-47-6.26-74.33,0-58.11,0-58.11h3.14s-2.13,54.28.19,87,8.43,45.43,8.43,45.43h-5.47" transform="translate(-29.9 -32.22)"/><path class="cls-17" d="M121.08,250.29a8.31,8.31,0,0,0-2.86-4.2c-2-1.27-4.62-.74-6.85,0-9.52,3.36-18,21.11-21.8,30.44l12.63,42.57C125,298,129,270.24,121.08,250.29Z" transform="translate(-29.9 -32.22)"/><path class="cls-3" d="M117.48,247.81a3,3,0,0,1-.19.56l-.61,1.55c-.56,1.34-1.34,3.29-2.26,5.7-1.87,4.84-4.24,11.6-6.35,19.21s-3.57,14.63-4.46,19.74c-.46,2.55-.79,4.62-1,6.05l-.27,1.65a2.64,2.64,0,0,1-.13.57,2.12,2.12,0,0,1,0-.58c0-.44.1-1,.17-1.67.15-1.44.44-3.52.84-6.08a180.69,180.69,0,0,1,10.83-39c1-2.41,1.81-4.34,2.42-5.65l.71-1.52A2.34,2.34,0,0,1,117.48,247.81Z" transform="translate(-29.9 -32.22)"/><path class="cls-17" d="M96.59,329.36C84.74,322.82,77.76,310.51,77.11,297c-.45-9.45,2.45-18.72,5.74-27.58a3.54,3.54,0,0,1,1.34-2c1-.56,2.23-.06,3.23.51,8.6,4.9,13.81,14.24,16.59,23.75A47.89,47.89,0,0,1,106,311.18a32.48,32.48,0,0,1-9.37,18.18" transform="translate(-29.9 -32.22)"/><path class="cls-3" d="M96.59,329.36a2,2,0,0,1,0-.57c0-.43,0-1,0-1.63,0-1.42-.06-3.47-.18-6a163.88,163.88,0,0,0-2.2-19.66c-1.31-7.63-2.91-14.46-4.08-19.39-.58-2.42-1-4.4-1.4-5.85l-.37-1.59a2.67,2.67,0,0,1-.09-.56,2.43,2.43,0,0,1,.2.53l.45,1.57c.39,1.37.93,3.35,1.57,5.81,1.26,4.92,2.92,11.74,4.24,19.39a143.25,143.25,0,0,1,2,19.74c.07,2.54.07,4.6,0,6,0,.66,0,1.2-.07,1.63A3.54,3.54,0,0,1,96.59,329.36Z" transform="translate(-29.9 -32.22)"/><g class="cls-23"><path d="M96.59,329.36C84.74,322.82,77.76,310.51,77.11,297c-.45-9.45,2.45-18.72,5.74-27.58a3.54,3.54,0,0,1,1.34-2c1-.56,2.23-.06,3.23.51,8.6,4.9,13.81,14.24,16.59,23.75A47.89,47.89,0,0,1,106,311.18a32.48,32.48,0,0,1-9.37,18.18" transform="translate(-29.9 -32.22)"/></g><path class="cls-17" d="M110,401.26C121.6,403.82,131.2,412,142.45,416c7.44,2.65,15.85,3.58,21.79,8.78-1.43-3.59-4.81-6-8.09-8a145,145,0,0,0-29.45-14.06c-5.29-1.83-11-3.36-16.42-1.85" transform="translate(-29.9 -32.22)"/><path class="cls-17" d="M93.1,411.65c-14.6-.24-30-12.67-44.5-13.41,15.2-4.91,37-.9,44.5,13.41" transform="translate(-29.9 -32.22)"/><path class="cls-17" d="M98.8,376.63c7.41-2.67,15.55-2.8,23.34-1.59s15.3,3.71,22.78,6.19c-.75-5.06-4.85-8.87-8.71-12.24a60.71,60.71,0,0,0-9.14-7,20.47,20.47,0,0,0-11-3.1A17.35,17.35,0,0,0,104,365a20,20,0,0,0-5.19,11.66" transform="translate(-29.9 -32.22)"/><path class="cls-17" d="M68.84,360.51c-9.19-7.84-23.11-7.07-35.18-6.8,18.56,8.88,38.57,21.05,54.56,34C88.71,379.17,80.45,370.42,68.84,360.51Z" transform="translate(-29.9 -32.22)"/><g class="cls-23"><path d="M68.84,360.51c-9.19-7.84-23.11-7.07-35.18-6.8,18.56,8.88,38.57,21.05,54.56,34C88.71,379.17,80.45,370.42,68.84,360.51Z" transform="translate(-29.9 -32.22)"/></g><path class="cls-17" d="M102.93,349.68a102.9,102.9,0,0,1,14.13-8.21c4.84-2.2,9.35-5.7,14-8.23,6.06-3.28,11.31-7.83,16.87-11.9s11.66-7.74,18.47-8.81a36.28,36.28,0,0,0-16.81,1,108.56,108.56,0,0,0-15.82,6.15c-7.17,3.23-14.46,6.54-20.32,11.78s-11.16,10.42-10.54,18.25" transform="translate(-29.9 -32.22)"/><path class="cls-3" d="M142.18,411.65a2.52,2.52,0,0,1-.46-.2l-1.28-.66c-1.1-.59-2.67-1.45-4.66-2.45-1-.52-2.08-1.07-3.26-1.62s-2.44-1.15-3.79-1.74a55.28,55.28,0,0,0-9-3.13,19.38,19.38,0,0,0-9.36-.24,27.31,27.31,0,0,0-4,1.19,20.32,20.32,0,0,0-3.2,1.64,20.68,20.68,0,0,0-4,3.33c-.84.9-1.25,1.46-1.29,1.43a2.32,2.32,0,0,1,.26-.43c.18-.27.48-.66.88-1.14a18.87,18.87,0,0,1,4-3.5,19.66,19.66,0,0,1,3.24-1.73,26.32,26.32,0,0,1,4-1.25,19.55,19.55,0,0,1,9.59.19,53.89,53.89,0,0,1,9.06,3.2c1.35.6,2.62,1.19,3.79,1.79S135,407.47,136,408c2,1,3.52,2,4.59,2.6l1.23.75C142.05,411.53,142.19,411.63,142.18,411.65Z" transform="translate(-29.9 -32.22)"/><path class="cls-3" d="M82.21,404.41a4,4,0,0,1,.91.27,22.43,22.43,0,0,1,2.38,1,29,29,0,0,1,12.2,11.72,20.68,20.68,0,0,1,1.12,2.34,3.66,3.66,0,0,1,.31.9c-.09,0-.63-1.2-1.75-3.05A33,33,0,0,0,92.11,411a32.61,32.61,0,0,0-6.78-5C83.43,405,82.17,404.5,82.21,404.41Z" transform="translate(-29.9 -32.22)"/><path class="cls-3" d="M49.91,359.78a3,3,0,0,1,.62.18l1.76.63,2.76,1c1.07.4,2.24,1,3.57,1.57a84.39,84.39,0,0,1,19,12.11A93,93,0,0,1,86.48,384a97,97,0,0,1,6.29,8c1.67,2.36,2.93,4.33,3.8,5.69l1,1.57a4.07,4.07,0,0,1,.32.56,2.92,2.92,0,0,1-.41-.5c-.26-.34-.63-.85-1.08-1.52-.92-1.32-2.23-3.26-3.93-5.58s-3.83-5-6.35-7.87a98.63,98.63,0,0,0-8.84-8.65,89.38,89.38,0,0,0-18.82-12.17c-1.31-.6-2.46-1.21-3.52-1.63l-2.73-1.1-1.71-.72A3.47,3.47,0,0,1,49.91,359.78Z" transform="translate(-29.9 -32.22)"/><path class="cls-3" d="M120.7,368.43a6.41,6.41,0,0,1-1.16-.15L118.2,368c-.52-.1-1.13-.11-1.8-.17a18.3,18.3,0,0,0-10,2,17.86,17.86,0,0,0-4.56,3.38,20.73,20.73,0,0,0-2.94,3.63,30,30,0,0,0-2,3.83,4.12,4.12,0,0,1,.29-1.14,16.15,16.15,0,0,1,1.4-2.88,19,19,0,0,1,2.91-3.77,17.69,17.69,0,0,1,15-5.4c.67.09,1.28.12,1.81.25l1.33.34A4.58,4.58,0,0,1,120.7,368.43Z" transform="translate(-29.9 -32.22)"/><path class="cls-3" d="M135.37,322.91a2.3,2.3,0,0,1-.55.34l-1.63.89c-1.41.76-3.45,1.89-5.93,3.35s-5.37,3.29-8.45,5.5a70.52,70.52,0,0,0-9.45,7.91,24.1,24.1,0,0,0-3.86,5c-1,1.83-1.87,3.61-2.71,5.31a95.88,95.88,0,0,0-4.05,9.23,57.3,57.3,0,0,0-2,6.51c-.37,1.56-.51,2.44-.56,2.43a5.07,5.07,0,0,1,.06-.64c0-.43.14-1.05.31-1.84a47.67,47.67,0,0,1,1.82-6.58,88.69,88.69,0,0,1,4-9.32c.83-1.71,1.74-3.5,2.69-5.34a23.9,23.9,0,0,1,3.94-5.12,67.77,67.77,0,0,1,9.54-7.94c3.12-2.2,6-4,8.55-5.43s4.57-2.5,6-3.21l1.67-.8A3.67,3.67,0,0,1,135.37,322.91Z" transform="translate(-29.9 -32.22)"/><path class="cls-3" d="M94.44,367.11a5.92,5.92,0,0,1-.29-1.23c-.17-.9-.38-2-.64-3.37a93.05,93.05,0,0,0-2.76-11,94.6,94.6,0,0,0-4.17-10.5l-1.42-3.12a6.15,6.15,0,0,1-.47-1.18,5.68,5.68,0,0,1,.65,1.09c.39.71.93,1.75,1.58,3.06a76.36,76.36,0,0,1,4.33,10.49,78,78,0,0,1,2.63,11.05c.22,1.44.39,2.6.47,3.41A5.67,5.67,0,0,1,94.44,367.11Z" transform="translate(-29.9 -32.22)"/><path class="cls-17" d="M93.39,333.9a39.78,39.78,0,0,0-4.75-15.76,52,52,0,0,0-35.26-26.29L86,340.5l4.22,8.69C93.11,344.47,93.75,339.42,93.39,333.9Z" transform="translate(-29.9 -32.22)"/><rect class="cls-8" x="34.41" y="397.57" width="75.91" height="13.45"/><polygon class="cls-8" points="40.08 408.36 46.54 450.1 96.93 450.1 104.65 408.36 40.08 408.36"/><path class="cls-3" d="M140.17,443.26c0,.15-17.12.26-38.24.26s-38.24-.11-38.24-.26,17.12-.27,38.24-.27S140.17,443.11,140.17,443.26Z" transform="translate(-29.9 -32.22)"/></g><g id="Character"><path class="cls-3" d="M262.91,130.36c-12.23-2.08-23,2.63-33.28,9.52s-18.07,17.29-22.56,28.85c-4.72,12.18-5.87,25.88-2.24,38.42s12.22,23.78,23.87,29.69c15.9,8.08,36.23,5.26,50.46-5.49s22.36-28.54,23-46.36c.47-12.28-2.47-24.84-9.33-35s-17.81-17.81-30-19.59" transform="translate(-29.9 -32.22)"/><path class="cls-3" d="M228.14,171.93c1.79-4.68,1.1-9.9,1.8-14.86,1.56-10.91,10.36-19.66,20.53-23.92,9.46-4,21-3.09,32.41.59,7.81,2.53,15.17,6.93,20.38,13.28a34.3,34.3,0,0,1,6.3,30.78l-55.84-8.13c-5.23,4.33-10.58,8.72-16.93,11.14a11.62,11.62,0,0,1-5.82.93,5.22,5.22,0,0,1-4.35-3.59C226.11,176,227.37,174,228.14,171.93Z" transform="translate(-29.9 -32.22)"/><path class="cls-24" d="M284.08,149.16l-48.76,10.33a9.1,9.1,0,0,0-8.49,8.91l.58,105.5a32.82,32.82,0,0,0,6.87,19.9l4.65,6c10.6,13.67,32.08,12.29,40.17-3a11.47,11.47,0,0,0,1.13-2.76,24,24,0,0,0,.46-2.38l.92-10.29c.48-9.39.54-18.93.55-18.85s19.95-2.52,25.06-28.22c2.54-12.79,2.71-33.9,2.3-51.18C309.14,167.56,299.6,148.12,284.08,149.16Z" transform="translate(-29.9 -32.22)"/><path class="cls-3" d="M302.1,202.92a3.32,3.32,0,0,1-3.33,3.22,3.17,3.17,0,0,1-3.3-3.13,3.33,3.33,0,0,1,3.32-3.22A3.17,3.17,0,0,1,302.1,202.92Z" transform="translate(-29.9 -32.22)"/><path class="cls-3" d="M304.52,193.91c-.43.42-2.87-1.54-6.44-1.67s-6.26,1.55-6.63,1.1c-.18-.2.27-1,1.44-1.75a9.19,9.19,0,0,1,5.33-1.42,8.74,8.74,0,0,1,5.1,1.87C304.38,192.93,304.73,193.72,304.52,193.91Z" transform="translate(-29.9 -32.22)"/><path class="cls-3" d="M270.11,202.11a3.33,3.33,0,0,1-3.33,3.23,3.17,3.17,0,0,1-3.3-3.13A3.31,3.31,0,0,1,266.8,199,3.18,3.18,0,0,1,270.11,202.11Z" transform="translate(-29.9 -32.22)"/><path class="cls-3" d="M270.62,193c-.43.42-2.87-1.54-6.44-1.67s-6.25,1.55-6.62,1.1c-.19-.2.26-1,1.44-1.75a9.16,9.16,0,0,1,5.32-1.42,8.74,8.74,0,0,1,5.1,1.87C270.49,192.06,270.83,192.85,270.62,193Z" transform="translate(-29.9 -32.22)"/><path class="cls-3" d="M281.33,220.19c0-.21,2.23-.5,5.84-.82.91-.06,1.78-.21,2-.83a4.63,4.63,0,0,0-.5-2.72l-2.43-7c-3.36-10-5.75-18.25-5.35-18.39s3.46,7.89,6.82,17.92q1.21,3.7,2.31,7.08c.31,1.05.85,2.25.33,3.6a2.27,2.27,0,0,1-1.55,1.27,6,6,0,0,1-1.55.16C283.58,220.46,281.34,220.39,281.33,220.19Z" transform="translate(-29.9 -32.22)"/><path class="cls-25" d="M282.16,262.52a65.81,65.81,0,0,1-34.28-10.58s8,18.24,34,16.83Z" transform="translate(-29.9 -32.22)"/><path class="cls-25" d="M279.49,228.73a6.47,6.47,0,0,0-5.68-2.61,5.88,5.88,0,0,0-4.14,2,3.71,3.71,0,0,0-.44,4.24c.91,1.39,2.91,1.78,4.63,1.37a13.69,13.69,0,0,0,4.67-2.55,4,4,0,0,0,1.06-1,1.16,1.16,0,0,0,0-1.32" transform="translate(-29.9 -32.22)"/><path class="cls-3" d="M270.73,222.25c.58,0,.44,3.86,3.65,6.74s7.35,2.61,7.36,3.16c0,.24-.95.71-2.7.69a9.62,9.62,0,0,1-6.15-2.41,8.41,8.41,0,0,1-2.81-5.65C270,223.16,270.47,222.22,270.73,222.25Z" transform="translate(-29.9 -32.22)"/><path class="cls-3" d="M270.42,182.44c-.39,1-3.94.36-8.14.7s-7.64,1.36-8.16.46c-.24-.42.39-1.31,1.79-2.2a14.24,14.24,0,0,1,12.42-.88C269.85,181.2,270.59,182,270.42,182.44Z" transform="translate(-29.9 -32.22)"/><path class="cls-3" d="M304.09,178.26c-.66.79-3.09-.15-6-.31s-5.49.34-6-.53c-.24-.42.19-1.22,1.31-1.95a8.81,8.81,0,0,1,9.73.68C304.07,177,304.38,177.87,304.09,178.26Z" transform="translate(-29.9 -32.22)"/><path class="cls-3" d="M219.21,164.4c5-14.85,27.12-35.08,42.74-33.67l24.68,15.48a24.1,24.1,0,0,1-16.72,18.11c-4.45,1.26-9.77,1.52-12.47,5.27s-1.31,9.5-3.88,13.45c-3.57,5.47-13,5-15.74,11-1.18,2.59-.65,5.74-1.89,8.31-1.64,3.43-10.49,7.65-14.09,6.43s-3.49-7.4-4.62-10.66c-1.91-5.56-1-8.41-.29-11.49C218.65,179.32,216.8,171.48,219.21,164.4Z" transform="translate(-29.9 -32.22)"/><path class="cls-24" d="M232.47,212c.07-1.93-2-6.56-3.87-6.93-5-1-14.22-.93-14.81,12-.8,17.63,17.07,14.8,17.12,14.3S232.23,218.67,232.47,212Z" transform="translate(-29.9 -32.22)"/><path class="cls-25" d="M225.83,224.42c-.07-.06-.32.2-.84.42a3.06,3.06,0,0,1-2.3-.06c-1.83-.77-3.27-3.8-3.21-7a10.16,10.16,0,0,1,1.06-4.36,3.55,3.55,0,0,1,2.42-2.25,1.57,1.57,0,0,1,1.77.92c.22.51.09.86.18.89s.39-.28.28-1a2,2,0,0,0-.64-1.14,2.3,2.3,0,0,0-1.68-.52,4.31,4.31,0,0,0-3.33,2.58,10.39,10.39,0,0,0-1.29,4.87c-.05,3.56,1.62,7,4.13,7.82a3.29,3.29,0,0,0,2.83-.34C225.78,224.85,225.89,224.46,225.83,224.42Z" transform="translate(-29.9 -32.22)"/><path class="cls-3" d="M281.5,140.87c1.63,7.18,12.54,16.39,17.33,22,9.13,10.66,10.93,14.2,10.84,38,4.32-8.23,7.62-16.3,7.29-25.59s-3.75-18.59-10.21-25.28-16.05-10.48-25.25-9.15" transform="translate(-29.9 -32.22)"/><path class="cls-3" d="M237.33,120.79c-4.13-3.61-9.68-5.64-15.31-6.39A35.64,35.64,0,0,0,198.76,119c-6.73,4.2-11.5,11.18-12.13,18.66a21.07,21.07,0,0,0,9.86,19.45A35.41,35.41,0,0,1,183,167.23a10.41,10.41,0,0,0,7.42,3.19,31.77,31.77,0,0,0,8.33-1,14.47,14.47,0,0,1-7.32,6.73,26.65,26.65,0,0,0,13.55-2,53.08,53.08,0,0,0,11.67-6.92c12.48-9.27,19.08-16.89,26.75-29.89C244,132.13,241.47,124.41,237.33,120.79Z" transform="translate(-29.9 -32.22)"/><circle class="cls-17" cx="195.95" cy="201.69" r="7.67"/><path class="cls-3" d="M212.68,160.64c8.18-15.43,19.79-24.51,30.82-28.17" transform="translate(-29.9 -32.22)"/><path class="cls-17" d="M243.5,132.47a10,10,0,0,1-1.54.67c-1,.41-2.44,1-4.15,1.91a53.22,53.22,0,0,0-12.19,8.74A67.57,67.57,0,0,0,216,155.34c-1,1.62-1.88,2.94-2.41,3.88a9.78,9.78,0,0,1-.91,1.42,10.34,10.34,0,0,1,.73-1.52c.48-1,1.28-2.32,2.28-4a61.64,61.64,0,0,1,9.57-11.73,49.85,49.85,0,0,1,12.39-8.69,36.77,36.77,0,0,1,4.24-1.77A11.43,11.43,0,0,1,243.5,132.47Z" transform="translate(-29.9 -32.22)"/><path class="cls-17" d="M202.37,174.17l.23.05.66.18c.58.18,1.44.4,2.56.65a40.09,40.09,0,0,0,9.62.86,52.18,52.18,0,0,0,14.09-2.5,92.64,92.64,0,0,0,16.08-7.08c5.48-3,10.63-6,15.2-8.94a96.21,96.21,0,0,0,11.54-8.55,61.6,61.6,0,0,0,6.78-6.91c.75-.87,1.28-1.58,1.65-2.06l.43-.54a.84.84,0,0,1,.16-.17s0,.08-.12.2l-.38.57c-.35.5-.85,1.24-1.58,2.13a56.42,56.42,0,0,1-6.7,7.06,93.05,93.05,0,0,1-11.52,8.68c-4.57,2.94-9.71,6-15.21,9a91.07,91.07,0,0,1-16.19,7.08,51.46,51.46,0,0,1-14.22,2.41,38,38,0,0,1-9.68-1c-1.11-.29-2-.54-2.54-.75l-.64-.23A.9.9,0,0,1,202.37,174.17Z" transform="translate(-29.9 -32.22)"/><path class="cls-24" d="M352.24,336l29.5,53.88L425,365.71l21,6.93s-53,57.48-61.61,60.41-24.89,3.47-34.21-8.19C341.66,414.25,317,358.54,317,358.54Z" transform="translate(-29.9 -32.22)"/><path class="cls-17" d="M473.68,300.82a3.48,3.48,0,0,0-3.19-1.26l-20.55,2.83a6.43,6.43,0,0,0-4.4,2.83l-42.67,65.59,3.28,1.83,22.73-.71,45.44-70.31Z" transform="translate(-29.9 -32.22)"/><path class="cls-4" d="M459.13,309.34a1.47,1.47,0,1,0,.14-1.75A1.27,1.27,0,0,0,459.13,309.34Z" transform="translate(-29.9 -32.22)"/><path class="cls-3" d="M474.32,301.62a24.73,24.73,0,0,1-4,.79l-10.89,1.69-7.53,1.1a4.27,4.27,0,0,0-3.17,1.87l-2.43,3.77c-3.37,5.18-7,10.85-10.9,16.8-7.76,11.9-14.85,22.64-20,30.37-2.52,3.73-4.61,6.8-6.18,9.13a25.59,25.59,0,0,1-2.41,3.25,24.29,24.29,0,0,1,2-3.51l5.86-9.34c5-7.86,12-18.67,19.72-30.58l11-16.74,2.49-3.76a5.29,5.29,0,0,1,3.91-2.27l7.56-1,10.95-1.3A26.08,26.08,0,0,1,474.32,301.62Z" transform="translate(-29.9 -32.22)"/><path class="cls-24" d="M451.53,325.07s-1.83-.33-2.84,4.68-4.23,19.38-4.23,19.38l-9.6-5.09-12,1.56s-2.62,2.42-.7,3.73,9.51,2.67,9.51,2.67l5.6,8.05-16.07-7.74s-5.36,1.39-3.79,4.66,12.4,13.51,12.4,13.51l-8-.61-9.57-5.81s-2.94.13-1.84,2.63,11,11.54,11,11.54l12.07,5.85s6.59-.51,7.22-2.45a22.63,22.63,0,0,0,.79-4.69s3.5-.94,4.15-2.64a10.46,10.46,0,0,0,.24-4.38s5.49,1,6.17-2.1.11-9.08-.45-11.44,2.34-24.23,2.12-24.89S455,323.62,451.53,325.07Z" transform="translate(-29.9 -32.22)"/><path class="cls-25" d="M441.11,381.66c0,.14-1.12.65-3.15,1A21.25,21.25,0,0,1,422.75,379c-1.66-1.19-2.47-2.18-2.37-2.29.22-.31,4.05,3,9.92,4.35S441.05,381.28,441.11,381.66Z" transform="translate(-29.9 -32.22)"/><path class="cls-25" d="M438.26,377.33c-.19.28-2.33-.84-4.61-2.72s-3.81-3.75-3.57-4,2.11,1.2,4.35,3S438.45,377,438.26,377.33Z" transform="translate(-29.9 -32.22)"/><path class="cls-25" d="M444.6,366.92c-.18.28-2.3-.82-4.44-2.8s-3.41-4-3.14-4.21,1.91,1.4,4,3.3S444.8,366.63,444.6,366.92Z" transform="translate(-29.9 -32.22)"/><path class="cls-25" d="M451.28,358.53c-.33.14-1.54-2.13-3.45-4.59s-3.77-4.24-3.56-4.52,2.53,1.13,4.54,3.76S451.59,358.42,451.28,358.53Z" transform="translate(-29.9 -32.22)"/><path class="cls-8" d="M356.28,337S337.28,305.36,332,299a42.22,42.22,0,0,0-15.56-11.41,32,32,0,0,0-7.4-2.19l-27.33-6.05s-.24,12.4-19.8,13.12c-22.5.83-35.79-19.38-35.79-19.38s-31.57,4.88-39.13,8.76-19.43,8.83-26,41.54l-4.58,32,54.44,5,5.21,80.89,27,18.8s74.85,19.46,79.63,20.75,6.37-120.44,6.37-120.44S348.32,347.94,356.28,337Z" transform="translate(-29.9 -32.22)"/><path class="cls-3" d="M210.55,323.73c.15,0,.45,9.54.68,21.32s.31,21.32.16,21.32-.44-9.53-.68-21.31S210.41,323.73,210.55,323.73Z" transform="translate(-29.9 -32.22)"/><path class="cls-3" d="M319.85,323.41a2,2,0,0,1,.31.47c.21.38.48.84.8,1.42s.76,1.37,1.19,2.27,1,1.91,1.44,3.08a70,70,0,0,1,3.06,8.32,76,76,0,0,1,2.26,10.61,102.27,102.27,0,0,1,.57,19.68c-.17,2.51-.33,4.54-.5,5.94-.07.65-.14,1.19-.18,1.61a2,2,0,0,1-.11.56,4.14,4.14,0,0,1,0-.57l.09-1.62c.1-1.4.21-3.43.33-5.94a111,111,0,0,0-.72-19.59,73.24,73.24,0,0,0-5.13-18.85c-.46-1.17-1-2.19-1.37-3.1s-.79-1.68-1.11-2.31l-.71-1.46A2.58,2.58,0,0,1,319.85,323.41Z" transform="translate(-29.9 -32.22)"/><path class="cls-3" d="M288.52,280.81a13.66,13.66,0,0,1-.34,3.42,17.09,17.09,0,0,1-4.41,8.23,24,24,0,0,1-12.24,6.43,40.06,40.06,0,0,1-17-.16,54.21,54.21,0,0,1-15.84-6.25,58.17,58.17,0,0,1-11.14-8.36,52.51,52.51,0,0,1-6.15-7.09c-.64-.91-1.07-1.66-1.38-2.14a6.08,6.08,0,0,1-.45-.77,5.4,5.4,0,0,1,.53.71c.35.47.8,1.2,1.47,2.08a57.22,57.22,0,0,0,6.23,6.95,59.28,59.28,0,0,0,11.13,8.2,54.69,54.69,0,0,0,15.71,6.16,39.88,39.88,0,0,0,16.79.2,23.79,23.79,0,0,0,12.08-6.21,17.31,17.31,0,0,0,4.48-8,20.13,20.13,0,0,0,.43-2.5A4.74,4.74,0,0,1,288.52,280.81Z" transform="translate(-29.9 -32.22)"/><path class="cls-24" d="M318.13,456,215.62,433.64l-4.73-73.26-45.59-4.22s1.69,50.09,3.44,65c2.53,21.41,15.18,50.64,22.59,56.47s131.4,3.21,131.4,3.21Z" transform="translate(-29.9 -32.22)"/><path class="cls-24" d="M376.31,469.23a4,4,0,0,1-3.82,2.23,4.7,4.7,0,0,1-1-.2c-2.27-.73-2.05-5.35-2.05-5.35l-10.87-1.77s-14.12,9.11-19.15,15.15-17.85,1.14-17.85,1.14l-4.44-23.15,20-18.08s-1.22,1.07.16-2.31,7.66-2.1,7.66-2.1c1-1.67,5.08-2.27,5.08-2.27l17.54,2a12,12,0,0,1,8.79,5.52l7.41,11.74s3.92,8.45,3.29,10.42c-.95,3-4.09,2.3-4.09,2.3s-.86,5.56-2.32,5.75-4.34-1-4.34-1Z" transform="translate(-29.9 -32.22)"/><path class="cls-25" d="M339,452.6c0,.19,2.35,0,6.1.13a53.4,53.4,0,0,1,14.31,2.68,50.53,50.53,0,0,1,7.38,3.16c2.12,1.19,4.33,2.17,5,3.71a2.13,2.13,0,0,1-.19,2.09,3,3,0,0,1-1.32,1.12,4.88,4.88,0,0,1-1.54.23c-.05,0,.54.48,1.68.18a3.22,3.22,0,0,0,1.69-1.16,2.81,2.81,0,0,0,.41-2.75,5.6,5.6,0,0,0-2.18-2.46c-.95-.63-1.95-1.27-3.07-1.87a45.88,45.88,0,0,0-22.16-5.72C341.28,452,339,452.48,339,452.6Z" transform="translate(-29.9 -32.22)"/><path class="cls-25" d="M337.76,463.79c0,.33,7.15,0,15.92.54s15.83,1.59,15.89,1.26c0-.14-1.71-.6-4.57-1.11a103.32,103.32,0,0,0-22.58-1.28C339.52,463.38,337.75,463.64,337.76,463.79Z" transform="translate(-29.9 -32.22)"/><path class="cls-25" d="M376.21,468.79a8.31,8.31,0,0,0,.22-1.87,40.77,40.77,0,0,0,0-5.14,21.2,21.2,0,0,0-.49-3.55,10.88,10.88,0,0,0-1.72-3.82,23.79,23.79,0,0,0-6.57-6.73,33,33,0,0,0-8.39-4.24,30.37,30.37,0,0,0-7.58-1.16c-2.17-.07-3.91,0-5.12,0a6,6,0,0,0-1.87.19c0,.18,2.67.27,6.94.58a33.26,33.26,0,0,1,7.32,1.35A34.15,34.15,0,0,1,367,448.6a24,24,0,0,1,6.36,6.39,13.33,13.33,0,0,1,2.27,6.86C376.07,466.1,376,468.79,376.21,468.79Z" transform="translate(-29.9 -32.22)"/><path class="cls-25" d="M350.88,437c0,.17,2.62.24,6.81.72s10.49.92,14.17,6.48c4,5.06,7.37,9.84,8.85,13.76s1.43,6.58,1.66,6.56a4.73,4.73,0,0,0,.11-1.86,17.48,17.48,0,0,0-1-5c-1.34-4.14-4.71-9.09-8.72-14.18a18.89,18.89,0,0,0-3.41-3.45,12.57,12.57,0,0,0-4.12-1.94,38.31,38.31,0,0,0-7.44-1.18C353.51,436.62,350.87,436.83,350.88,437Z" transform="translate(-29.9 -32.22)"/><path class="cls-25" d="M343.27,475.55a7.11,7.11,0,0,0,1-.8l2.94-2.36a124.07,124.07,0,0,1,11.52-7.94l-.25.05,10.85,1.85-.37-.46a12.65,12.65,0,0,0,.2,2.66,5,5,0,0,0,1.24,2.61,2.75,2.75,0,0,0,1.44.66,3.87,3.87,0,0,0,1.52.09,4.5,4.5,0,0,0,2.71-1.5,4.4,4.4,0,0,0,.47-.64l.1-.17.05-.09,0-.05h0l-.63.23h0l.34.14c.46.18.93.34,1.41.49a11.86,11.86,0,0,0,1.48.37,4.27,4.27,0,0,0,.81.09,1.9,1.9,0,0,0,1-.19,3.22,3.22,0,0,0,1.06-1.44,12.11,12.11,0,0,0,.54-1.49,26.28,26.28,0,0,0,.7-3.07l-.64.43a4.12,4.12,0,0,0,4.05-1.38,3.35,3.35,0,0,0,.75-2.18,9.89,9.89,0,0,0-.39-2.1,58,58,0,0,0-3-7.81l0,0,0,0c-1.26-2-2.6-4.11-3.95-6.26l-2.51-4a21.18,21.18,0,0,0-2.75-3.84,11.77,11.77,0,0,0-3.94-2.62,15.32,15.32,0,0,0-4.47-.93L350.09,432H350a15.25,15.25,0,0,0-2.9.76,5,5,0,0,0-2.52,1.76l.61-.19a6.07,6.07,0,0,0-5.64.32,7.07,7.07,0,0,0-2.78,4.44l.13-.23-13.78,12.39-3.71,3.42a9.54,9.54,0,0,0-1.24,1.25,10.43,10.43,0,0,0,1.4-1.07l3.86-3.26,14-12.11.09-.08,0-.15a6.29,6.29,0,0,1,2.46-3.86,5.18,5.18,0,0,1,4.75-.2l.38.16.23-.35a4,4,0,0,1,2-1.33,14.25,14.25,0,0,1,2.7-.69H350L366.5,435a14.08,14.08,0,0,1,4.18.87,10.6,10.6,0,0,1,3.56,2.38,20.79,20.79,0,0,1,2.6,3.66l2.5,4,4,6.26,0-.07a58.52,58.52,0,0,1,3,7.64,9.1,9.1,0,0,1,.35,1.85,2.3,2.3,0,0,1-.52,1.49,3,3,0,0,1-3,1l-.55-.09-.08.53a27.89,27.89,0,0,1-.65,2.94,5.37,5.37,0,0,1-1.14,2.35,1.09,1.09,0,0,1-.44,0,4,4,0,0,1-.67-.07,13.44,13.44,0,0,1-1.36-.33c-.45-.14-.89-.29-1.33-.46l-.32-.13h0l-.65.23h0l0,0,0,.07-.07.14a3.59,3.59,0,0,1-.37.5,3.45,3.45,0,0,1-2.1,1.19,2.83,2.83,0,0,1-1.19-.07,1.79,1.79,0,0,1-1-.41c-1-1.08-1.18-3-1.19-4.54v-.4l-.37-.06-10.88-1.7-.14,0-.11.07a105.56,105.56,0,0,0-11.4,8.26c-1.26,1.07-2.2,1.92-2.82,2.52A5.43,5.43,0,0,0,343.27,475.55Z" transform="translate(-29.9 -32.22)"/><path class="cls-2" d="M524.79,367.7l-135,1.1c-4.38,0-8.57,2.1-9.22,6.43L365.8,473.64H296.26a4.06,4.06,0,0,0,0,8.11H518.37l15.18-103.86A8.86,8.86,0,0,0,524.79,367.7Z" transform="translate(-29.9 -32.22)"/><path class="cls-3" d="M524.79,367.7a7.31,7.31,0,0,1,2.13.2,8.93,8.93,0,0,1,6.83,7.73c.22,1.74-.28,3.57-.5,5.56-.56,4-1.22,8.55-2,13.7-3,20.63-7.25,50.36-12.52,86.92l0,.35h-.36l-215.48.13h-5.8a5.6,5.6,0,0,1-3.07-.58,4.6,4.6,0,0,1,0-8,5.7,5.7,0,0,1,3-.58H365.8l-.52.45c5.31-35.24,10.27-68.12,14.71-97.61a7.65,7.65,0,0,1,2.5-5.14,10.08,10.08,0,0,1,5.16-2.28,45.84,45.84,0,0,1,5.45-.19l5.3,0,20.33-.13,36.12-.23,51.43-.27,13.75,0,3.56,0,1.2,0s-.4,0-1.2.06l-3.55.07-13.76.2-51.43.57-36.12.36-20.33.2-5.3,0a44.35,44.35,0,0,0-5.31.19,9.13,9.13,0,0,0-4.71,2.08,6.69,6.69,0,0,0-2.19,4.61c-4.4,29.5-9.31,62.38-14.57,97.63l-.06.44h-.46l-43.29,0H297.08a4.53,4.53,0,0,0-2.51.44,3.52,3.52,0,0,0-1.6,4.28,3.48,3.48,0,0,0,1.58,1.86,4.53,4.53,0,0,0,2.54.44h5.8l215.48.13-.41.36c5.42-36.53,9.82-66.25,12.88-86.87q1.15-7.71,2.06-13.69c.24-2,.75-3.81.55-5.47a8.61,8.61,0,0,0-1.57-4.19,8.84,8.84,0,0,0-5-3.45A18.46,18.46,0,0,0,524.79,367.7Z" transform="translate(-29.9 -32.22)"/><circle class="cls-4" cx="421.66" cy="391.26" r="8.45"/><path class="cls-3" d="M371.27,480.84c.2,0,4.49-25,9.6-56s9.1-56.05,8.91-56.08-4.49,25-9.6,56S371.08,480.81,371.27,480.84Z" transform="translate(-29.9 -32.22)"/></g></svg>